<?xml version="1.0" standalone="no"?>
<!DOCTYPE svg PUBLIC "-//W3C//DTD SVG 20010904//EN"
 "http://www.w3.org/TR/2001/REC-SVG-20010904/DTD/svg10.dtd">
<svg version="1.0" xmlns="http://www.w3.org/2000/svg"
 width="800.000000pt" height="800.000000pt" viewBox="0 0 800.000000 800.000000"
 preserveAspectRatio="xMidYMid meet">
<metadata>
Created by potrace 1.14, written by Peter Selinger 2001-2017
</metadata>
<g transform="translate(0.000000,800.000000) scale(0.100000,-0.100000)"
fill="#000000" stroke="none">
<path d="M2922 7858 l-73 -20 7 -32 c4 -17 14 -36 23 -43 9 -6 16 -15 17 -20
0 -4 7 -21 14 -38 7 -16 14 -34 14 -40 6 -47 48 -85 96 -85 14 0 20 -6 20 -24
0 -19 4 -22 24 -19 37 8 41 -15 4 -25 l-33 -9 28 -13 c22 -11 27 -19 23 -35
-7 -27 3 -38 20 -24 9 7 18 5 33 -10 10 -10 30 -21 43 -24 23 -4 23 -4 1 -6
-13 0 -23 -5 -23 -11 0 -5 -9 -18 -21 -29 l-21 -20 41 -12 c23 -7 41 -17 41
-24 0 -6 16 -17 35 -24 37 -13 44 -25 21 -34 -21 -8 -16 -47 6 -47 11 0 18 -7
18 -18 0 -10 10 -29 22 -42 12 -12 22 -32 23 -44 1 -14 9 -21 23 -20 12 0 23
-5 26 -13 4 -9 -4 -13 -26 -13 -17 0 -28 -3 -24 -7 4 -4 21 -7 38 -8 18 0 33
-6 36 -14 3 -10 -1 -12 -17 -8 -11 3 -21 1 -21 -4 0 -4 -6 -6 -14 -3 -8 3 -17
1 -21 -5 -3 -7 2 -11 14 -11 14 0 23 -9 27 -27 4 -16 11 -33 16 -40 5 -7 7
-17 3 -23 -3 -5 1 -10 10 -10 13 0 14 4 5 20 -6 11 -8 20 -6 20 3 0 1 11 -4
25 -10 27 -1 38 24 29 12 -5 14 -10 6 -20 -8 -9 -8 -19 0 -34 9 -16 8 -25 -1
-37 -11 -12 -10 -17 4 -28 9 -7 17 -16 17 -21 0 -12 -73 -43 -84 -36 -6 3 0
10 12 15 12 6 22 16 22 23 0 26 -23 62 -42 68 -16 4 -19 10 -14 30 6 24 4 26
-24 26 -35 0 -37 -6 -10 -28 20 -17 20 -17 -5 -46 -14 -16 -26 -26 -26 -23 -1
4 -2 11 -3 16 0 5 -4 13 -8 17 -5 4 -8 16 -8 27 0 10 -9 21 -20 24 -15 4 -17
9 -10 23 13 25 13 30 -5 30 -10 0 -15 10 -15 29 0 21 -6 32 -20 36 -11 3 -20
13 -20 21 0 17 -17 49 -46 86 -12 15 -25 43 -28 63 -8 41 -33 75 -56 75 -19 0
-43 37 -45 68 -1 28 -15 38 -65 46 -21 3 -40 13 -44 21 -3 8 -11 15 -17 15 -7
0 -21 8 -31 17 -16 15 -21 15 -28 3 -14 -23 -101 69 -93 98 3 13 1 22 -6 22
-6 0 -11 -8 -11 -19 0 -10 -7 -25 -16 -32 -15 -13 -17 -11 -12 19 6 43 -23 44
-39 1 -11 -28 -13 -29 -35 -17 -13 7 -26 18 -30 23 -4 6 -8 1 -8 -11 0 -11 -6
-28 -13 -39 -13 -17 -15 -17 -35 3 -12 12 -22 18 -22 13 0 -5 -10 -12 -22 -14
-17 -3 -15 -5 8 -6 19 0 34 -8 38 -17 9 -23 7 -31 -3 -15 -8 12 -12 12 -25 2
-12 -11 -29 -11 -82 -2 -36 7 -69 10 -72 6 -12 -11 -40 27 -34 47 5 20 2 21
-39 15 -29 -4 -37 -3 -24 3 11 5 14 9 7 9 -7 1 -10 6 -7 12 4 5 -26 -6 -67
-27 -105 -53 -228 -125 -228 -133 0 -4 -6 -8 -12 -8 -7 0 -58 -29 -113 -64
-73 -47 -94 -65 -80 -68 11 -2 29 -10 40 -17 11 -8 32 -14 47 -14 18 0 28 -5
28 -15 0 -11 11 -15 42 -15 34 0 47 -5 63 -26 19 -24 24 -25 44 -14 21 11 22
10 17 -8 -8 -23 43 -72 74 -72 10 0 25 -11 34 -25 9 -14 23 -25 32 -25 8 0 13
-4 10 -8 -2 -4 -1 -13 3 -20 5 -8 14 -8 35 3 27 14 28 14 23 -6 -6 -21 11 -59
25 -59 5 0 8 7 8 15 0 8 5 15 10 15 6 0 10 -7 10 -15 0 -21 16 -19 25 3 7 16
8 15 15 -3 5 -11 9 -15 9 -8 1 15 81 -26 81 -41 0 -10 18 -23 83 -62 10 -6 25
-21 33 -33 8 -11 22 -21 30 -21 8 0 14 -9 14 -20 0 -11 6 -20 13 -20 13 -1 87
-66 87 -78 0 -4 31 -41 70 -82 38 -41 70 -78 70 -82 0 -5 7 -8 15 -8 8 0 21
-15 30 -33 9 -19 29 -44 45 -56 17 -12 30 -28 30 -36 0 -8 9 -20 20 -27 11 -7
20 -18 20 -25 0 -7 5 -13 10 -13 6 0 9 -10 9 -22 -1 -17 -2 -19 -6 -5 -2 9 -9
17 -15 17 -6 0 -3 -11 6 -25 9 -13 16 -31 16 -39 0 -8 14 -25 31 -39 30 -23
30 -24 21 -78 -6 -32 -7 -55 -1 -57 5 -2 9 -21 9 -43 0 -21 5 -39 11 -39 5 0
7 -4 4 -10 -3 -5 3 -27 15 -49 23 -46 25 -72 8 -89 -7 -7 -8 -12 -2 -12 15 0
35 -47 28 -65 -4 -8 -1 -15 5 -15 6 0 11 5 11 12 0 23 11 -1 26 -58 10 -40 14
-91 12 -159 -3 -96 -2 -100 21 -111 23 -12 23 -12 2 -19 -23 -7 -28 -34 -9
-53 8 -8 8 -12 1 -12 -6 0 -13 -18 -17 -39 -4 -26 -12 -41 -24 -44 -9 -3 -3
-5 14 -6 41 -1 47 -10 21 -31 -18 -15 -19 -20 -8 -33 8 -11 10 -27 6 -48 -5
-21 -3 -34 5 -39 21 -13 2 -50 -26 -50 -27 0 -28 3 -13 32 9 16 8 19 -3 16 -7
-2 -17 -14 -23 -26 -12 -27 -25 -28 -51 -4 -10 10 -27 16 -36 14 -12 -2 -19 5
-24 22 -7 29 -34 57 -34 36 0 -10 -4 -10 -16 1 -13 10 -17 10 -24 -2 -8 -11
-13 -12 -29 -2 -14 9 -22 9 -27 2 -6 -10 -31 -7 -67 7 -14 5 -34 -28 -29 -48
1 -3 -14 -6 -33 -5 -19 1 -30 4 -24 8 8 4 8 9 1 13 -6 4 -25 -2 -43 -13 -33
-20 -33 -20 -47 0 -7 10 -17 17 -22 14 -5 -3 -25 11 -46 30 -39 38 -49 41 -60
24 -4 -8 -9 -7 -15 2 -6 11 -11 11 -20 2 -9 -9 -18 -9 -32 -1 -14 7 -22 7 -27
-2 -5 -8 -15 -10 -26 -5 -38 15 -158 14 -192 -1 -18 -8 -40 -15 -50 -14 -17 1
-49 0 -107 -3 -16 -1 -36 -10 -43 -20 -15 -19 -36 -13 -28 9 6 16 -7 18 -32 5
-9 -5 -25 -12 -35 -15 -11 -3 -21 -14 -24 -24 -2 -10 -29 -30 -58 -45 -39 -19
-53 -31 -49 -42 5 -12 -2 -15 -35 -15 -33 0 -41 -4 -41 -18 0 -11 -10 -24 -22
-30 -19 -9 -20 -11 -5 -11 30 -1 8 -21 -24 -21 -22 0 -29 -5 -29 -20 0 -15 7
-20 24 -20 37 0 39 -14 5 -34 -16 -10 -29 -23 -28 -29 5 -42 -2 -67 -20 -67
-10 0 -26 -11 -35 -25 -9 -14 -23 -25 -30 -25 -16 0 -28 -24 -20 -44 3 -8 -4
-16 -18 -20 -13 -4 -18 -10 -11 -12 9 -4 6 -15 -8 -40 -10 -19 -19 -40 -19
-46 0 -6 -7 -16 -15 -22 -22 -16 -38 -119 -30 -190 7 -53 9 -58 21 -42 7 11
18 15 25 10 7 -4 10 -3 5 4 -7 12 9 18 82 27 l52 7 -3 -29 c-2 -16 -7 -35 -11
-42 -13 -20 10 -35 54 -37 35 -1 39 2 43 25 4 26 4 26 12 4 8 -25 35 -31 35
-8 0 9 6 12 15 9 11 -5 13 -2 9 10 -4 11 -1 16 10 16 9 0 16 7 16 15 0 8 6 15
14 15 7 0 20 8 27 19 8 10 26 22 42 25 22 5 27 3 27 -13 0 -11 5 -23 10 -26 6
-3 10 -19 10 -34 0 -27 2 -28 62 -35 34 -3 67 -11 72 -16 6 -6 19 -10 31 -10
12 0 25 -4 31 -9 10 -11 42 -15 90 -13 35 2 79 35 69 51 -3 6 -3 11 2 12 4 0
20 3 34 5 22 4 28 0 33 -22 7 -27 33 -28 28 -2 -2 11 8 17 32 20 38 4 81 -23
88 -57 2 -11 10 -19 16 -17 19 4 93 -38 87 -48 -4 -6 1 -10 10 -10 8 0 20 -11
25 -25 5 -14 16 -25 25 -25 8 0 15 -7 15 -15 0 -19 36 -38 60 -30 14 5 20 2
20 -10 0 -12 -6 -15 -20 -10 -23 7 -60 -10 -60 -29 0 -13 -41 -36 -65 -36 -8
0 -15 -4 -15 -9 0 -5 -15 -11 -32 -15 -56 -10 -62 -12 -66 -24 -2 -7 -14 -12
-26 -12 -30 0 -61 -24 -51 -39 5 -9 27 -11 84 -5 62 5 80 11 98 31 16 16 29
22 45 18 30 -8 101 41 75 51 -10 3 -17 12 -17 20 0 16 16 19 25 4 9 -15 25
-12 25 5 0 8 9 19 20 25 11 6 20 17 20 24 0 8 15 19 33 26 17 6 40 16 49 21
10 5 27 9 39 9 16 0 19 4 15 17 -8 19 9 33 42 33 12 0 22 4 22 9 0 11 -25 21
-56 21 -21 0 -24 4 -24 40 0 46 12 50 44 15 28 -30 33 -30 59 -8 18 17 20 17
42 -9 23 -26 23 -27 41 -7 20 22 34 11 34 -28 0 -17 6 -23 23 -23 29 0 77 22
77 35 0 6 13 19 29 30 22 14 27 23 19 32 -6 7 -19 13 -29 13 -14 0 -19 7 -19
25 0 14 5 25 10 25 6 0 10 -7 10 -16 0 -9 6 -14 13 -11 6 2 12 12 12 22 0 10
6 20 13 23 6 2 12 11 13 20 0 11 2 13 6 4 4 -9 8 -10 18 -2 19 16 35 -16 28
-54 -4 -19 -2 -27 4 -23 6 4 13 -3 17 -16 3 -12 2 -23 -3 -25 -12 -4 -1 -45
15 -55 7 -4 16 -29 19 -55 8 -63 21 -110 61 -214 52 -135 73 -407 45 -588 -20
-130 -20 -132 -34 -123 -9 5 -9 4 0 -8 7 -8 12 -42 11 -77 -1 -48 -5 -66 -22
-84 -12 -12 -21 -32 -21 -43 0 -15 -9 -22 -35 -26 -30 -6 -31 -7 -7 -8 15 0
27 -6 27 -11 0 -9 -13 -16 -67 -35 -16 -6 -5 -35 13 -35 8 0 14 -7 14 -15 0
-11 -8 -15 -26 -13 -23 3 -27 -1 -28 -24 -1 -16 1 -28 5 -28 4 0 10 -16 13
-35 7 -35 -6 -75 -24 -75 -6 0 -24 -12 -40 -27 -21 -18 -27 -30 -20 -38 7 -8
2 -15 -16 -24 -18 -8 -24 -17 -20 -28 5 -13 4 -14 -8 -4 -16 13 -56 6 -56 -9
0 -5 -8 -9 -17 -9 -35 -1 -83 -13 -83 -22 0 -5 6 -6 14 -3 8 3 17 1 21 -5 3
-6 3 -11 -2 -12 -58 -5 -93 -19 -93 -37 0 -10 -11 -28 -25 -40 -14 -12 -25
-27 -25 -32 0 -6 -10 -25 -22 -42 -17 -22 -19 -32 -10 -35 18 -7 14 -41 -6
-52 -16 -8 -18 -19 -14 -66 4 -46 1 -58 -14 -70 -18 -13 -18 -15 -1 -32 16
-17 17 -16 17 4 0 14 8 23 27 28 15 3 31 12 35 18 6 9 11 8 19 -3 8 -11 12
-12 15 -3 4 10 10 10 25 0 21 -13 25 -43 7 -50 -10 -4 -10 -8 1 -15 7 -5 11
-14 8 -19 -4 -6 0 -19 8 -29 25 -32 18 -42 -25 -37 -35 4 -40 2 -40 -15 0 -11
11 -27 25 -36 21 -14 23 -20 15 -42 -6 -14 -10 -36 -10 -50 0 -14 -7 -27 -15
-30 -13 -5 -13 -9 -3 -21 10 -13 8 -19 -15 -37 -15 -12 -27 -29 -27 -38 0 -9
-4 -20 -10 -23 -5 -3 -7 -19 -3 -35 5 -25 2 -30 -14 -30 -41 0 -91 -68 -63
-85 6 -3 10 -13 10 -21 0 -8 -4 -14 -10 -14 -5 0 -10 7 -10 15 0 8 -4 15 -10
15 -5 0 -10 -7 -10 -15 0 -8 -4 -15 -10 -15 -5 0 -10 -11 -10 -25 0 -15 -11
-36 -24 -48 -13 -13 -26 -36 -28 -52 -2 -25 -7 -30 -28 -27 -18 1 -21 -1 -11
-7 11 -7 11 -10 -1 -17 -21 -13 -40 -52 -32 -66 5 -7 1 -9 -12 -6 -17 4 -19 0
-16 -49 4 -52 3 -54 -16 -44 -28 15 -29 15 -46 -21 -12 -22 -13 -34 -5 -38 6
-4 0 -10 -16 -14 -20 -5 -25 -11 -20 -25 3 -12 0 -21 -10 -25 -9 -3 -14 -10
-11 -15 7 -11 -43 -91 -57 -91 -5 0 -6 -11 -3 -25 5 -20 2 -26 -18 -31 -18 -4
-22 -11 -19 -25 4 -14 0 -22 -14 -25 -28 -8 -31 -91 -5 -110 15 -11 14 -13
-11 -25 -15 -7 -27 -20 -27 -30 0 -10 -7 -24 -15 -33 -8 -8 -15 -32 -15 -53 0
-28 -3 -34 -10 -23 -6 10 -8 4 -4 -22 6 -33 5 -36 -14 -31 -14 3 -24 -2 -31
-15 -9 -17 -7 -21 11 -25 21 -6 21 -7 5 -25 -23 -25 -21 -32 8 -32 31 0 33
-14 4 -26 -21 -10 -21 -10 6 -22 21 -10 25 -10 19 0 -6 9 -3 9 9 -1 15 -12 17
-11 17 2 0 22 18 31 35 17 17 -14 22 -4 19 37 -2 32 9 43 21 23 3 -5 18 -10
32 -10 22 0 24 3 19 24 -8 34 9 77 29 70 9 -4 15 -1 15 9 0 10 8 13 25 9 19
-3 24 -1 20 11 -4 8 1 17 9 20 9 4 16 13 16 21 0 17 27 29 35 15 9 -13 27 0
22 16 -7 16 29 46 46 39 18 -6 49 40 41 60 -4 11 0 16 15 16 12 0 22 6 23 13
0 6 2 17 2 22 3 18 17 35 26 30 4 -3 14 2 21 11 10 13 10 19 0 36 -11 18 -11
20 3 15 31 -12 47 3 40 37 -6 36 12 59 43 54 14 -2 19 4 21 27 2 17 10 34 18
38 8 4 14 17 14 27 0 11 9 24 20 30 21 11 28 60 9 60 -6 0 -9 -6 -6 -13 5 -15
-27 -59 -37 -50 -3 4 0 13 8 22 8 9 16 27 18 41 2 21 8 25 31 22 19 -2 27 2
27 13 0 8 -4 15 -10 15 -13 0 -13 47 0 52 6 2 15 26 19 53 7 39 9 43 10 18 2
-57 40 -55 44 3 1 19 -2 28 -10 26 -15 -2 -17 24 -3 33 6 3 10 -1 10 -10 0 -9
6 -15 13 -13 18 6 41 108 28 121 -8 8 -11 6 -11 -6 0 -9 -4 -17 -10 -17 -5 0
-10 9 -10 20 0 25 29 38 40 19 11 -17 13 -14 30 46 20 74 24 125 10 125 -6 0
-9 4 -6 8 3 5 -1 20 -9 35 -8 15 -10 27 -6 27 5 0 14 -14 21 -31 16 -38 24
-29 40 48 14 68 8 98 -15 89 -9 -3 -15 0 -15 8 0 7 10 12 22 12 25 -1 33 22
48 134 6 41 11 80 12 85 0 6 -2 20 -6 32 -6 18 -4 22 8 17 12 -5 16 0 16 20 0
14 -4 26 -10 26 -18 0 -11 18 10 25 10 3 32 -1 49 -9 16 -9 65 -21 107 -27 69
-11 78 -10 90 5 9 13 13 14 17 4 3 -10 8 -11 26 -1 11 7 30 13 41 13 11 0 20
4 20 10 0 5 -7 7 -15 4 -18 -7 -47 14 -39 27 3 5 0 9 -5 9 -6 0 -11 -4 -11
-10 0 -5 -5 -10 -12 -10 -9 0 -9 3 0 12 17 17 15 85 -2 91 -20 8 -30 96 -15
132 16 39 20 105 7 105 -6 0 -5 6 2 15 9 11 10 18 1 29 -8 9 -9 21 -2 37 18
44 25 84 26 149 1 36 5 79 8 95 3 17 9 59 13 95 4 36 12 68 18 72 8 5 8 13 0
25 -14 24 -18 97 -4 88 6 -4 10 17 10 62 0 37 7 86 14 108 13 36 17 40 47 39
28 0 34 -5 41 -31 13 -49 31 -58 62 -30 14 13 26 29 26 36 0 6 4 11 10 11 5 0
7 -13 4 -30 -4 -16 -2 -30 3 -30 11 0 46 117 39 135 -2 7 1 16 8 18 13 5 26
75 28 157 1 46 -15 207 -32 315 -16 97 -19 155 -10 155 5 0 8 21 6 48 -2 26 1
52 6 59 5 7 6 22 2 35 -9 29 -12 70 -6 82 3 5 7 46 9 90 6 140 8 164 16 172 4
4 7 16 7 26 0 21 15 24 24 6 4 -7 4 3 2 24 -4 29 -1 37 15 41 10 3 19 11 19
17 0 7 -7 10 -15 6 -18 -7 -20 5 -2 23 10 10 9 11 -5 6 -11 -4 -18 -2 -18 4 0
6 5 11 10 11 6 0 10 14 10 30 0 17 4 30 8 30 16 0 30 45 21 63 -7 11 -6 24 1
38 8 15 8 24 0 34 -6 7 -13 57 -15 110 -3 53 -7 101 -10 106 -8 11 15 35 41
42 10 3 -1 4 -26 1 -39 -3 -42 -2 -22 8 12 6 22 17 22 24 0 7 10 20 21 28 20
14 21 20 15 105 -5 78 -4 91 9 91 11 0 15 11 15 40 0 22 -4 40 -10 40 -14 0
-12 34 3 49 10 10 9 15 -5 25 -22 16 -23 54 -3 83 8 12 12 24 7 27 -4 2 -9 22
-10 43 -2 20 -9 44 -17 53 -8 9 -15 41 -16 80 -1 36 -10 96 -19 135 -13 53
-15 75 -7 93 9 20 8 27 -6 37 -19 13 -23 45 -6 45 6 0 10 10 9 23 -6 65 0 97
18 97 14 0 15 2 2 10 -12 7 -12 12 4 29 15 16 17 30 13 66 -7 47 1 56 27 30
14 -14 16 -14 20 7 13 62 14 116 4 126 -6 6 -11 32 -10 58 0 32 -3 43 -9 33
-16 -25 -11 19 7 52 16 31 11 89 -7 89 -5 0 -9 10 -9 23 0 12 -9 33 -20 47
-11 14 -20 30 -20 37 0 6 -9 15 -20 18 -11 3 -20 13 -20 21 0 8 -4 14 -10 14
-5 0 -10 9 -10 20 0 21 -16 28 -22 9 -6 -17 -38 2 -38 22 0 10 -5 19 -11 19
-6 0 -8 9 -3 22 6 20 5 21 -9 10 -13 -11 -19 -10 -36 7 -27 27 -51 27 -51 1 0
-15 -7 -20 -25 -20 -18 0 -25 5 -25 20 0 13 7 20 20 20 11 0 20 5 20 10 0 6
-7 10 -15 10 -9 0 -18 7 -21 15 -4 8 -13 15 -21 15 -11 0 -13 7 -9 26 6 22 4
25 -9 20 -9 -3 -23 -6 -31 -6 -18 0 -18 -19 0 -39 7 -9 16 -38 19 -65 l5 -50
-19 25 c-10 13 -19 32 -19 42 0 20 -52 77 -69 77 -6 0 -11 6 -11 13 -1 6 -7 1
-15 -13 -12 -22 -14 -23 -20 -8 -4 9 -4 21 -1 26 3 6 -5 12 -19 14 -21 4 -25
1 -25 -18 0 -13 -5 -24 -11 -24 -6 0 -10 16 -8 38 3 63 0 98 -10 84 -13 -21
-40 28 -34 61 3 15 0 33 -6 41 -6 7 -9 21 -5 30 3 9 0 26 -9 39 -8 12 -18 37
-21 54 -4 18 -12 31 -18 30 -6 -1 -18 12 -27 30 -9 17 -26 36 -38 42 -18 8
-23 19 -23 50 0 22 -6 44 -15 51 -8 7 -15 18 -15 24 0 6 -9 17 -20 24 -11 7
-20 19 -20 27 0 8 -9 15 -20 15 -13 0 -20 7 -20 20 0 17 -5 19 -25 14 -18 -4
-27 -1 -31 10 -3 9 -13 16 -21 16 -8 0 -11 -5 -7 -12 4 -7 3 -8 -5 -4 -6 4 -9
12 -6 17 9 14 -22 10 -103 -13z m38 -108 c0 -5 -2 -10 -4 -10 -3 0 -8 5 -11
10 -3 6 -1 10 4 10 6 0 11 -4 11 -10z m95 -139 c3 -5 1 -12 -5 -16 -5 -3 -10
1 -10 9 0 18 6 21 15 7z m-825 -77 c0 -8 -19 -13 -24 -6 -3 5 1 9 9 9 8 0 15
-2 15 -3z m925 -54 c3 -5 -1 -10 -9 -10 -8 0 -18 5 -21 10 -3 6 1 10 9 10 8 0
18 -4 21 -10z m-580 -28 c-9 -10 -45 -12 -45 -4 0 19 23 32 37 20 7 -6 11 -13
8 -16z m685 -63 c0 -6 -4 -7 -10 -4 -5 3 -10 11 -10 16 0 6 5 7 10 4 6 -3 10
-11 10 -16z m45 -79 c3 -5 -1 -10 -10 -10 -9 0 -13 5 -10 10 3 6 8 10 10 10 2
0 7 -4 10 -10z m-1465 -20 c0 -5 10 -10 22 -12 32 -5 35 -28 4 -28 -16 0 -26
6 -26 15 0 8 -6 15 -13 15 -8 0 -14 6 -14 14 0 8 6 12 14 9 7 -3 13 -9 13 -13z
m87 -42 c-3 -7 -5 -2 -5 12 0 14 2 19 5 13 2 -7 2 -19 0 -25z m1433 -90 c0
-16 -3 -19 -11 -11 -6 6 -8 16 -5 22 11 17 16 13 16 -11z m340 -147 c0 -16 3
-36 6 -44 3 -10 -6 -20 -27 -31 -36 -18 -48 -14 -29 9 11 13 10 19 -5 35 -20
22 -13 40 16 40 10 0 19 5 19 10 0 6 5 10 10 10 6 0 10 -13 10 -29z m28 -117
c2 -10 11 -25 20 -31 14 -12 14 -13 -1 -13 -20 0 -23 -16 -4 -23 10 -4 10 -7
0 -18 -11 -11 -13 -10 -13 3 0 9 -10 18 -22 22 -17 4 -20 8 -11 17 7 7 9 19 3
34 -5 13 -6 26 -2 29 10 11 27 0 30 -20z m-368 -29 c0 -9 -6 -12 -15 -9 -8 4
-15 10 -15 15 0 5 7 9 15 9 8 0 15 -7 15 -15z m117 -50 c-4 -8 -11 -15 -17
-15 -6 0 -6 7 2 20 14 22 24 19 15 -5z m-38 -42 c0 -16 -3 -22 -6 -13 -3 8
-10 21 -16 28 -7 8 -5 12 7 12 11 0 16 -8 15 -27z m301 -12 c0 -6 -4 -13 -10
-16 -5 -3 -10 1 -10 9 0 9 5 16 10 16 6 0 10 -4 10 -9z m250 -57 c0 -8 -4 -12
-10 -9 -5 3 -10 10 -10 16 0 5 5 9 10 9 6 0 10 -7 10 -16z m-570 -3 c0 -6 -4
-13 -10 -16 -5 -3 -10 1 -10 9 0 9 5 16 10 16 6 0 10 -4 10 -9z m376 -16 c-23
-17 -36 -19 -36 -6 0 11 18 19 40 20 11 0 10 -3 -4 -14z m44 -129 c0 -11 -19
-15 -25 -6 -3 5 1 10 9 10 9 0 16 -2 16 -4z m-73 -58 c-3 -8 -6 -5 -6 6 -1 11
2 17 5 13 3 -3 4 -12 1 -19z m96 -1215 c-7 -2 -19 -2 -25 0 -7 3 -2 5 12 5 14
0 19 -2 13 -5z m44 -41 c7 -5 9 -13 4 -21 -7 -11 -12 -11 -30 1 -30 21 -5 40
26 20z m3 -116 c0 -3 -4 -8 -10 -11 -5 -3 -10 -1 -10 4 0 6 5 11 10 11 6 0 10
-2 10 -4z m-1961 -20 c9 -11 8 -15 -5 -20 -23 -9 -24 -8 -24 14 0 23 13 26 29
6z m2006 -276 c3 -5 1 -10 -4 -10 -6 0 -11 5 -11 10 0 6 2 10 4 10 3 0 8 -4
11 -10z m-185 -51 c0 -5 -4 -9 -10 -9 -5 0 -10 7 -10 16 0 8 5 12 10 9 6 -3
10 -10 10 -16z m-1132 -20 c2 -4 9 -6 16 -3 7 3 20 -12 31 -36 10 -22 22 -40
27 -40 4 0 8 -7 8 -15 0 -8 5 -15 10 -15 6 0 10 -4 10 -9 0 -5 -19 -7 -42 -4
-36 5 -40 4 -35 -10 4 -10 1 -17 -6 -18 -7 0 -27 -2 -44 -3 -18 -2 -33 0 -33
5 0 5 5 9 10 9 6 0 10 5 10 10 0 13 -33 13 -47 -1 -7 -7 -16 -7 -29 0 -11 5
-48 18 -83 29 -36 10 -66 23 -67 28 -3 10 112 69 161 84 32 9 98 2 103 -11z
m112 1 c13 -9 13 -11 0 -20 -22 -15 -30 -12 -30 10 0 22 8 25 30 10z m-437
-134 c48 -11 57 -11 57 0 0 8 5 14 10 14 6 0 10 -6 10 -14 0 -9 7 -12 18 -9
10 2 24 -3 31 -11 8 -9 21 -16 31 -16 10 0 27 -16 39 -35 11 -19 25 -35 32
-35 20 0 79 -32 74 -40 -3 -5 3 -13 12 -19 26 -15 6 -27 -54 -35 -40 -5 -53
-3 -53 6 0 7 -7 22 -15 32 -13 17 -18 18 -40 6 -19 -10 -28 -10 -39 -1 -7 6
-30 13 -50 15 -47 3 -52 10 -37 51 8 22 9 41 3 51 -7 13 -12 7 -20 -28 -12
-47 -34 -74 -52 -63 -5 3 -10 1 -10 -4 0 -18 -28 -12 -32 6 -3 15 -5 15 -18 2
-18 -18 -93 -23 -120 -9 -13 7 -21 7 -25 -1 -4 -6 -18 -8 -31 -5 -12 3 -43 -1
-67 -9 -25 -8 -63 -16 -86 -17 -23 -1 -41 -5 -41 -9 0 -4 -9 -11 -20 -14 -11
-3 -20 -13 -20 -21 0 -22 -27 -17 -33 7 -3 12 -10 18 -15 15 -6 -3 -8 -15 -5
-26 3 -11 0 -20 -6 -20 -6 0 -11 7 -11 15 0 25 23 65 37 65 8 0 21 7 29 15 9
8 26 15 38 15 12 0 35 14 51 30 16 17 33 30 38 30 4 0 15 7 23 15 9 8 28 15
44 15 15 0 30 6 33 14 3 7 18 16 34 18 15 3 36 9 46 13 12 5 17 3 15 -5 -2 -7
3 -15 10 -17 6 -3 12 2 12 11 0 19 20 22 20 4 0 -8 5 -6 10 4 11 18 48 17 143
-6z m-195 -184 c4 -26 -33 -82 -54 -82 -19 0 -18 16 5 39 13 13 17 27 13 46
-4 22 -2 26 14 23 11 -2 20 -13 22 -26z m-408 -42 c0 -27 -3 -30 -29 -30 -24
0 -29 4 -28 20 1 12 8 20 19 20 10 0 18 5 18 10 0 6 5 10 10 10 6 0 10 -13 10
-30z m-103 -85 c0 -8 -4 -12 -9 -9 -5 3 -6 10 -3 15 9 13 12 11 12 -6z m781
-16 c-12 -7 -24 -7 -35 0 -15 9 -12 10 17 10 29 0 32 -1 18 -10z m584 -16 c22
-20 24 -43 3 -43 -9 0 -15 9 -15 24 0 13 -6 27 -12 29 -7 3 -9 6 -4 6 5 1 18
-6 28 -16z m88 -2157 c0 -3 -4 -8 -10 -11 -5 -3 -10 -1 -10 4 0 6 5 11 10 11
6 0 10 -2 10 -4z m187 -38 c-3 -8 -6 -5 -6 6 -1 11 2 17 5 13 3 -3 4 -12 1
-19z m-15 -50 c-7 -7 -12 -8 -12 -2 0 14 12 26 19 19 2 -3 -1 -11 -7 -17z m-2
-110 c0 -18 -2 -20 -9 -8 -6 8 -7 18 -5 22 9 14 14 9 14 -14z m-183 -30 c-3
-8 -6 -5 -6 6 -1 11 2 17 5 13 3 -3 4 -12 1 -19z m173 -8 c0 -5 -5 -10 -11
-10 -5 0 -7 5 -4 10 3 6 8 10 11 10 2 0 4 -4 4 -10z m-25 -130 c-3 -5 -12 -10
-18 -10 -7 0 -6 4 3 10 19 12 23 12 15 0z m-25 -111 c0 -4 -5 -31 -11 -59 -8
-38 -14 -49 -22 -41 -8 8 -8 16 -1 29 6 9 11 33 10 53 -1 25 3 35 12 32 6 -3
12 -9 12 -14z m-300 -59 c0 -5 -4 -10 -10 -10 -5 0 -10 5 -10 10 0 6 5 10 10
10 6 0 10 -4 10 -10z m-55 -109 c3 -5 1 -12 -5 -16 -5 -3 -10 1 -10 9 0 18 6
21 15 7z m279 -56 c-10 -8 -23 -14 -29 -14 -5 0 -1 6 9 14 11 8 24 15 30 15 5
0 1 -7 -10 -15z m-574 -515 c0 -5 -9 -10 -20 -10 -11 0 -20 5 -20 10 0 6 9 10
20 10 11 0 20 -4 20 -10z m-43 -102 c-3 -8 -6 -5 -6 6 -1 11 2 17 5 13 3 -3 4
-12 1 -19z m223 -98 c0 -5 -2 -10 -4 -10 -3 0 -8 5 -11 10 -3 6 -1 10 4 10 6
0 11 -4 11 -10z m-240 -234 c0 -3 -4 -8 -10 -11 -5 -3 -10 -1 -10 4 0 6 5 11
10 11 6 0 10 -2 10 -4z"/>
<path d="M2774 7810 c-12 -5 -25 -14 -30 -21 -5 -9 -2 -10 10 -6 10 4 19 1 23
-9 5 -13 7 -13 14 -2 7 10 9 9 9 -4 0 -11 8 -18 20 -18 17 0 19 3 11 19 -6 10
-7 21 -3 25 3 4 -6 3 -20 -3 -17 -7 -29 -7 -33 -1 -6 9 8 14 28 11 5 -1 6 3 2
9 -3 5 -7 10 -8 9 -1 0 -12 -4 -23 -9z"/>
<path d="M2598 7713 c-29 -5 -29 -33 1 -33 14 0 14 2 1 10 -13 8 -13 10 2 10
9 0 20 5 23 10 3 6 5 9 3 9 -2 -1 -15 -4 -30 -6z"/>
<path d="M2474 7698 c-3 -4 -13 -8 -23 -8 -10 0 -24 -7 -31 -15 -7 -8 -21 -15
-32 -15 -11 0 -26 -7 -34 -15 -14 -13 -14 -15 -1 -15 9 0 18 -6 20 -12 4 -10
6 -10 6 -1 1 7 8 10 18 6 12 -5 15 -2 10 10 -4 10 -1 17 6 17 7 0 13 -11 13
-24 1 -19 -2 -23 -15 -18 -14 5 -14 4 1 -11 9 -9 22 -17 29 -17 7 0 9 3 6 7
-4 3 -2 12 4 20 9 10 8 13 -5 13 -10 0 -14 5 -11 11 4 6 14 8 22 5 8 -3 11 -1
8 4 -3 6 -1 10 4 10 6 0 11 -6 11 -12 0 -7 8 -1 17 12 9 14 22 28 27 32 7 5 6
8 -2 8 -7 0 -11 4 -7 9 3 6 -4 9 -16 8 -11 -1 -23 -5 -25 -9z"/>
<path d="M2316 7608 c3 -4 11 -5 19 -1 21 7 19 12 -4 10 -11 0 -18 -5 -15 -9z"/>
<path d="M3545 7300 c3 -5 10 -10 16 -10 5 0 9 5 9 10 0 6 -7 10 -16 10 -8 0
-12 -4 -9 -10z"/>
<path d="M3590 7285 c-7 -29 -7 -95 0 -95 15 0 18 14 10 60 -4 25 -9 41 -10
35z"/>
<path d="M3613 7245 c-3 -9 -3 -18 0 -22 10 -10 37 6 37 22 0 20 -29 20 -37 0z"/>
<path d="M1815 5130 c-3 -5 -1 -10 4 -10 6 0 11 5 11 10 0 6 -2 10 -4 10 -3 0
-8 -4 -11 -10z"/>
<path d="M2102 4180 c0 -14 2 -19 5 -12 2 6 2 18 0 25 -3 6 -5 1 -5 -13z"/>
<path d="M2145 3910 c3 -5 8 -10 11 -10 2 0 4 5 4 10 0 6 -5 10 -11 10 -5 0
-7 -4 -4 -10z"/>
<path d="M1411 2881 c-6 -10 -24 -21 -40 -24 -21 -4 -38 -19 -55 -44 -42 -67
-127 -126 -155 -109 -6 4 -24 0 -41 -9 -23 -12 -45 -14 -95 -9 -61 6 -65 6
-65 -14 0 -18 -4 -20 -30 -12 -17 5 -33 9 -35 9 -3 1 -8 2 -12 2 -5 1 -16 1
-25 0 -9 -1 -21 7 -27 17 -15 28 -88 68 -141 77 -25 5 -79 8 -121 8 -85 -1
-157 -28 -184 -69 -8 -13 -21 -24 -28 -24 -8 0 -23 -11 -34 -23 -20 -23 -20
-24 -2 -36 25 -15 24 -31 -1 -31 -11 0 -20 -5 -20 -11 0 -5 -4 -7 -10 -4 -18
11 -32 -5 -19 -21 9 -11 14 -12 19 -4 4 7 10 0 13 -17 5 -28 6 -28 74 -25 37
2 73 7 78 12 9 7 57 2 147 -15 28 -6 38 -13 38 -26 0 -14 10 -20 40 -25 24 -4
40 -12 40 -20 0 -8 -4 -14 -10 -14 -5 0 -10 -5 -10 -11 0 -6 8 -8 18 -5 14 5
22 -3 35 -28 10 -22 24 -36 39 -38 13 -2 24 -11 26 -23 5 -25 31 -55 49 -55 7
0 13 -4 13 -10 0 -5 -5 -10 -11 -10 -6 0 0 -15 15 -34 30 -40 31 -43 14 -49
-7 -2 -2 -2 12 0 20 2 29 -4 43 -29 l19 -33 26 33 c16 18 36 32 49 32 12 0 24
6 26 13 3 7 6 5 6 -6 1 -10 -5 -33 -13 -52 -13 -31 -13 -34 2 -38 9 -2 -2 -7
-25 -11 -44 -8 -55 -22 -27 -33 9 -3 19 0 24 6 5 9 9 8 14 -4 4 -12 12 -14 28
-9 19 6 21 5 11 -8 -13 -15 -11 -68 3 -90 5 -7 7 -21 5 -31 -1 -12 5 -20 18
-24 25 -6 23 3 26 -115 2 -73 -1 -101 -11 -109 -20 -16 -17 -37 6 -44 11 -3
20 -12 20 -19 0 -6 18 -29 40 -49 40 -36 45 -57 14 -57 -8 0 -14 -4 -14 -8 0
-5 -11 -15 -25 -22 -14 -7 -25 -19 -25 -26 0 -7 -7 -17 -16 -22 -14 -8 -12
-10 10 -16 36 -9 47 0 40 30 -4 14 -2 24 5 24 6 0 11 -4 11 -9 0 -17 74 -27
134 -18 50 7 67 5 120 -14 33 -12 78 -23 100 -25 21 -2 44 -11 51 -20 10 -14
24 -16 80 -12 37 3 70 10 74 16 3 5 24 8 46 7 54 -3 52 -2 58 -25 7 -27 24
-25 33 3 8 27 22 37 51 37 12 0 27 9 34 21 l11 21 21 -20 c32 -30 74 -44 80
-28 4 9 37 13 118 15 103 2 115 4 142 27 15 13 33 24 38 24 5 0 9 7 9 15 0 7
7 18 15 22 36 20 65 123 35 123 -4 0 -4 16 0 36 6 25 4 47 -5 68 -44 102 -55
123 -75 141 -17 15 -23 17 -29 6 -11 -17 -30 -6 -41 25 -11 27 -38 32 -47 9
-6 -17 -2 -20 -71 44 -39 36 -52 39 -52 11 0 -11 7 -20 15 -20 32 0 13 -16
-22 -18 -21 -2 -40 -7 -41 -13 -2 -5 -14 2 -27 15 -14 15 -30 23 -39 20 -11
-4 -15 3 -18 28 -2 22 -9 34 -21 36 -23 5 -57 -25 -57 -50 0 -26 -9 -23 -45
15 -48 49 -74 65 -116 72 -24 4 -43 15 -49 26 -6 10 -17 19 -24 19 -9 0 -12 7
-9 20 8 30 -40 49 -65 27 -10 -10 -25 -17 -33 -17 -17 -1 -54 -31 -61 -50 -5
-12 -7 -11 -14 4 -5 13 -3 21 4 24 7 2 12 17 12 33 0 22 5 29 20 29 11 0 20 5
20 10 0 6 -9 10 -20 10 -11 0 -20 -4 -20 -10 0 -5 -5 -10 -11 -10 -7 0 -9 11
-6 29 4 19 2 31 -6 35 -9 3 -8 8 3 15 42 29 45 32 33 38 -9 3 -10 10 -3 23 6
11 9 23 8 27 -1 4 3 17 9 28 11 20 13 27 13 45 0 6 25 10 54 10 79 0 106 27
106 104 0 31 -4 64 -9 74 -5 9 -16 46 -23 81 -13 63 -41 101 -75 101 -8 0 -32
18 -54 40 -22 22 -44 40 -48 40 -5 0 -18 16 -30 35 -23 39 -54 46 -70 16z m9
-697 c0 -8 -5 -12 -10 -9 -6 4 -8 11 -5 16 9 14 15 11 15 -7z m16 -71 c-10
-10 -19 5 -10 18 6 11 8 11 12 0 2 -7 1 -15 -2 -18z m-94 -37 c-8 -5 -18 -4
-25 3 -8 8 -6 11 6 11 11 0 17 8 18 23 1 21 1 21 8 -3 5 -17 3 -28 -7 -34z
m-132 -110 c0 -18 -7 -39 -15 -46 -8 -7 -15 -19 -15 -27 0 -20 -24 -11 -28 10
-2 10 3 17 12 17 24 0 42 45 26 65 -10 12 -10 15 4 15 12 0 16 -9 16 -34z
m147 -18 c-3 -7 -5 -2 -5 12 0 14 2 19 5 13 2 -7 2 -19 0 -25z m250 -36 c9 -9
12 -30 9 -64 -4 -44 -16 -81 -16 -50 0 7 -13 12 -30 12 -31 0 -38 13 -20 40 9
13 11 13 19 0 17 -26 20 -5 6 35 -16 45 -19 78 -8 89 4 4 12 -5 17 -21 5 -15
15 -34 23 -41z m-277 -1 c0 -6 -4 -13 -10 -16 -5 -3 -10 1 -10 9 0 9 5 16 10
16 6 0 10 -4 10 -9z m363 -126 c-7 -21 -13 -19 -13 6 0 11 4 18 10 14 5 -3 7
-12 3 -20z m161 -20 c3 -8 1 -15 -4 -15 -6 0 -10 7 -10 15 0 8 2 15 4 15 2 0
6 -7 10 -15z"/>
<path d="M3601 2844 c0 -11 3 -14 6 -6 3 7 2 16 -1 19 -3 4 -6 -2 -5 -13z"/>
<path d="M3640 2845 c0 -8 5 -15 10 -15 6 0 10 7 10 15 0 8 -4 15 -10 15 -5 0
-10 -7 -10 -15z"/>
<path d="M290 2610 c0 -5 7 -10 15 -10 8 0 15 5 15 10 0 6 -7 10 -15 10 -8 0
-15 -4 -15 -10z"/>
<path d="M3168 2613 c7 -3 16 -2 19 1 4 3 -2 6 -13 5 -11 0 -14 -3 -6 -6z"/>
<path d="M590 2220 c-12 -17 -20 -34 -17 -37 10 -9 37 6 35 19 -2 7 5 12 15
12 11 -1 17 4 15 14 -5 27 -25 24 -48 -8z"/>
<path d="M549 2160 c-13 -7 -16 -21 -13 -57 2 -27 4 -62 5 -80 2 -40 20 -34
45 14 14 27 16 37 7 40 -16 6 -17 33 -3 33 6 0 13 -7 16 -15 10 -25 35 -18 29
8 -3 12 -7 32 -8 45 -1 18 -7 22 -32 22 -16 0 -37 -5 -46 -10z"/>
<path d="M1027 2133 c-11 -10 -8 -63 3 -63 6 0 10 16 10 35 0 36 -2 40 -13 28z"/>
<path d="M2973 2113 c-15 -5 -18 -33 -4 -33 8 0 25 30 19 35 -2 1 -9 0 -15 -2z"/>
<path d="M960 2059 c0 -5 5 -7 10 -4 6 3 10 8 10 11 0 2 -4 4 -10 4 -5 0 -10
-5 -10 -11z"/>
<path d="M676 1978 c-20 -27 -4 -58 29 -58 26 0 46 21 27 28 -7 2 -12 12 -12
22 0 27 -27 32 -44 8z"/>
<path d="M653 1913 c-16 -6 -17 -33 -2 -33 5 0 15 -13 20 -30 13 -36 18 -37
52 -7 30 26 34 37 12 37 -8 0 -15 4 -15 8 0 7 -46 34 -53 31 -1 0 -8 -3 -14
-6z"/>
<path d="M3036 1234 c-9 -22 -8 -24 9 -18 8 4 15 12 15 20 0 19 -16 18 -24 -2z"/>
<path d="M2605 1210 c-3 -5 -1 -10 4 -10 6 0 11 5 11 10 0 6 -2 10 -4 10 -3 0
-8 -4 -11 -10z"/>
<path d="M2881 946 c-8 -9 -11 -19 -7 -23 9 -9 29 13 24 27 -2 8 -8 7 -17 -4z"/>
<path d="M2593 585 c-8 -22 6 -33 17 -15 13 20 12 30 0 30 -6 0 -13 -7 -17
-15z"/>
<path d="M2530 514 c0 -17 22 -14 28 4 2 7 -3 12 -12 12 -9 0 -16 -7 -16 -16z"/>
<path d="M2500 501 c0 -5 5 -13 10 -16 6 -3 10 -2 10 4 0 5 -4 13 -10 16 -5 3
-10 2 -10 -4z"/>
<path d="M2360 381 c0 -5 7 -11 14 -14 10 -4 13 -1 9 9 -6 15 -23 19 -23 5z"/>
<path d="M2420 354 c0 -8 5 -12 10 -9 6 3 10 10 10 16 0 5 -4 9 -10 9 -5 0
-10 -7 -10 -16z"/>
</g>
</svg>
